# MagicaVoxel @ ephtracy

# material
mtllib CornerRoadsGrey.mtl
usemtl palette

# normals
vn -1 0 0
vn 1 0 0
vn 0 0 1
vn 0 0 -1
vn 0 -1 0
vn 0 1 0

# texcoords
vt 0.0175781 0.5
vt 0.982422 0.5
vt 0.986328 0.5

# verts
v -25 0 13
v -25 0 9
v -25 0 1
v -25 0 -1
v -25 0 -9
v -25 0 -13
v -25 1 13
v -25 1 9
v -25 1 1
v -25 1 -1
v -25 1 -9
v -25 1 -13
v -13 0 -13
v -13 0 -17
v -13 0 -18
v -13 0 -22
v -13 0 -23
v -13 0 -25
v -13 1 -13
v -13 1 -17
v -13 1 -18
v -13 1 -22
v -13 1 -23
v -13 1 -25
v 13 0 13
v 13 0 12
v 13 0 8
v 13 0 7
v 13 0 3
v 13 0 2
v 13 0 -2
v 13 0 -3
v 13 0 -7
v 13 0 -8
v 13 0 -12
v 13 0 -13
v 13 0 -17
v 13 0 -18
v 13 0 -22
v 13 0 -23
v 13 0 -25
v 13 1 13
v 13 1 12
v 13 1 8
v 13 1 7
v 13 1 3
v 13 1 2
v 13 1 -2
v 13 1 -3
v 13 1 -7
v 13 1 -8
v 13 1 -12
v 13 1 -13
v 13 1 -17
v 13 1 -18
v 13 1 -22
v 13 1 -23
v 13 1 -25
v -25 0 13
v -25 1 13
v -23 0 13
v -23 1 13
v -22 0 13
v -22 1 13
v -18 0 13
v -18 1 13
v -17 0 13
v -17 1 13
v -13 0 13
v -13 1 13
v -12 0 13
v -12 1 13
v -8 0 13
v -8 1 13
v -7 0 13
v -7 1 13
v -3 0 13
v -3 1 13
v -2 0 13
v -2 1 13
v 2 0 13
v 2 1 13
v 3 0 13
v 3 1 13
v 7 0 13
v 7 1 13
v 8 0 13
v 8 1 13
v 12 0 13
v 12 1 13
v 13 0 13
v 13 1 13
v -25 0 -13
v -25 1 -13
v -23 0 -13
v -23 1 -13
v -22 0 -13
v -22 1 -13
v -18 0 -13
v -18 1 -13
v -17 0 -13
v -17 1 -13
v -13 0 -13
v -13 1 -13
v -13 0 -25
v -13 1 -25
v -9 0 -25
v -9 1 -25
v -1 0 -25
v -1 1 -25
v 1 0 -25
v 1 1 -25
v 9 0 -25
v 9 1 -25
v 13 0 -25
v 13 1 -25
v -25 0 13
v -23 0 13
v -22 0 13
v -18 0 13
v -17 0 13
v -13 0 13
v -12 0 13
v -8 0 13
v -7 0 13
v -3 0 13
v -2 0 13
v 2 0 13
v 3 0 13
v 7 0 13
v 8 0 13
v 12 0 13
v 13 0 13
v 11 0 12
v 12 0 12
v 13 0 12
v 10 0 11
v 11 0 11
v 12 0 11
v 9 0 10
v 10 0 10
v 11 0 10
v -25 0 9
v -23 0 9
v -22 0 9
v -18 0 9
v -17 0 9
v -13 0 9
v -12 0 9
v -8 0 9
v -7 0 9
v -3 0 9
v -2 0 9
v 2 0 9
v 3 0 9
v 7 0 9
v 8 0 9
v 9 0 9
v 10 0 9
v 9 0 8
v 13 0 8
v 9 0 7
v 13 0 7
v 9 0 3
v 13 0 3
v 9 0 2
v 13 0 2
v -25 0 1
v -23 0 1
v -21 0 1
v -16 0 1
v -14 0 1
v -10 0 1
v -8 0 1
v -4 0 1
v -2 0 1
v 1 0 1
v -25 0 -1
v -23 0 -1
v -21 0 -1
v -16 0 -1
v -14 0 -1
v -10 0 -1
v -8 0 -1
v -4 0 -1
v -2 0 -1
v -1 0 -1
v -1 0 -2
v 1 0 -2
v 9 0 -2
v 13 0 -2
v 9 0 -3
v 13 0 -3
v -1 0 -4
v 1 0 -4
v 9 0 -7
v 13 0 -7
v -1 0 -8
v 1 0 -8
v 9 0 -8
v 13 0 -8
v -25 0 -9
v -23 0 -9
v -22 0 -9
v -18 0 -9
v -17 0 -9
v -10 0 -9
v -11 0 -10
v -10 0 -10
v -9 0 -10
v -1 0 -10
v 1 0 -10
v -12 0 -11
v -11 0 -11
v -10 0 -11
v -13 0 -12
v -12 0 -12
v -11 0 -12
v 9 0 -12
v 13 0 -12
v -25 0 -13
v -23 0 -13
v -22 0 -13
v -18 0 -13
v -17 0 -13
v -13 0 -13
v -12 0 -13
v 9 0 -13
v 13 0 -13
v -1 0 -14
v 1 0 -14
v -1 0 -16
v 1 0 -16
v -13 0 -17
v -9 0 -17
v 9 0 -17
v 13 0 -17
v -13 0 -18
v -9 0 -18
v 9 0 -18
v 13 0 -18
v -1 0 -21
v 1 0 -21
v -13 0 -22
v -9 0 -22
v 9 0 -22
v 13 0 -22
v -13 0 -23
v -9 0 -23
v -1 0 -23
v 1 0 -23
v 9 0 -23
v 13 0 -23
v -13 0 -25
v -9 0 -25
v -1 0 -25
v 1 0 -25
v 9 0 -25
v 13 0 -25
v -25 1 13
v -23 1 13
v -22 1 13
v -18 1 13
v -17 1 13
v -13 1 13
v -12 1 13
v -8 1 13
v -7 1 13
v -3 1 13
v -2 1 13
v 2 1 13
v 3 1 13
v 7 1 13
v 8 1 13
v 12 1 13
v 13 1 13
v 11 1 12
v 12 1 12
v 13 1 12
v 10 1 11
v 11 1 11
v 12 1 11
v 9 1 10
v 10 1 10
v 11 1 10
v -25 1 9
v -23 1 9
v -22 1 9
v -18 1 9
v -17 1 9
v -13 1 9
v -12 1 9
v -8 1 9
v -7 1 9
v -3 1 9
v -2 1 9
v 2 1 9
v 3 1 9
v 7 1 9
v 8 1 9
v 9 1 9
v 10 1 9
v 9 1 8
v 13 1 8
v 9 1 7
v 13 1 7
v 9 1 3
v 13 1 3
v 9 1 2
v 13 1 2
v -25 1 1
v -23 1 1
v -21 1 1
v -16 1 1
v -14 1 1
v -10 1 1
v -8 1 1
v -4 1 1
v -2 1 1
v 1 1 1
v -25 1 -1
v -23 1 -1
v -21 1 -1
v -16 1 -1
v -14 1 -1
v -10 1 -1
v -8 1 -1
v -4 1 -1
v -2 1 -1
v -1 1 -1
v -1 1 -2
v 1 1 -2
v 9 1 -2
v 13 1 -2
v 9 1 -3
v 13 1 -3
v -1 1 -4
v 1 1 -4
v 9 1 -7
v 13 1 -7
v -1 1 -8
v 1 1 -8
v 9 1 -8
v 13 1 -8
v -25 1 -9
v -23 1 -9
v -22 1 -9
v -18 1 -9
v -17 1 -9
v -10 1 -9
v -11 1 -10
v -10 1 -10
v -9 1 -10
v -1 1 -10
v 1 1 -10
v -12 1 -11
v -11 1 -11
v -10 1 -11
v -13 1 -12
v -12 1 -12
v -11 1 -12
v 9 1 -12
v 13 1 -12
v -25 1 -13
v -23 1 -13
v -22 1 -13
v -18 1 -13
v -17 1 -13
v -13 1 -13
v -12 1 -13
v 9 1 -13
v 13 1 -13
v -1 1 -14
v 1 1 -14
v -1 1 -16
v 1 1 -16
v -13 1 -17
v -9 1 -17
v 9 1 -17
v 13 1 -17
v -13 1 -18
v -9 1 -18
v 9 1 -18
v 13 1 -18
v -1 1 -21
v 1 1 -21
v -13 1 -22
v -9 1 -22
v 9 1 -22
v 13 1 -22
v -13 1 -23
v -9 1 -23
v -1 1 -23
v 1 1 -23
v 9 1 -23
v 13 1 -23
v -13 1 -25
v -9 1 -25
v -1 1 -25
v 1 1 -25
v 9 1 -25
v 13 1 -25

# faces
f 7/2/1 2/2/1 1/2/1
f 8/3/1 3/3/1 2/3/1
f 8/2/1 2/2/1 7/2/1
f 9/1/1 4/1/1 3/1/1
f 9/3/1 3/3/1 8/3/1
f 10/3/1 5/3/1 4/3/1
f 10/1/1 4/1/1 9/1/1
f 11/2/1 6/2/1 5/2/1
f 11/3/1 5/3/1 10/3/1
f 12/2/1 6/2/1 11/2/1
f 19/2/1 14/2/1 13/2/1
f 20/3/1 15/3/1 14/3/1
f 20/2/1 14/2/1 19/2/1
f 21/2/1 16/2/1 15/2/1
f 21/3/1 15/3/1 20/3/1
f 22/3/1 17/3/1 16/3/1
f 22/2/1 16/2/1 21/2/1
f 23/2/1 18/2/1 17/2/1
f 23/3/1 17/3/1 22/3/1
f 24/2/1 18/2/1 23/2/1
f 25/3/2 26/3/2 42/3/2
f 26/2/2 27/2/2 43/2/2
f 42/3/2 26/3/2 43/3/2
f 27/3/2 28/3/2 44/3/2
f 43/2/2 27/2/2 44/2/2
f 28/2/2 29/2/2 45/2/2
f 44/3/2 28/3/2 45/3/2
f 29/3/2 30/3/2 46/3/2
f 45/2/2 29/2/2 46/2/2
f 30/2/2 31/2/2 47/2/2
f 46/3/2 30/3/2 47/3/2
f 31/3/2 32/3/2 48/3/2
f 47/2/2 31/2/2 48/2/2
f 32/2/2 33/2/2 49/2/2
f 48/3/2 32/3/2 49/3/2
f 33/3/2 34/3/2 50/3/2
f 49/2/2 33/2/2 50/2/2
f 34/2/2 35/2/2 51/2/2
f 50/3/2 34/3/2 51/3/2
f 35/3/2 36/3/2 52/3/2
f 51/2/2 35/2/2 52/2/2
f 36/2/2 37/2/2 53/2/2
f 52/3/2 36/3/2 53/3/2
f 37/3/2 38/3/2 54/3/2
f 53/2/2 37/2/2 54/2/2
f 38/2/2 39/2/2 55/2/2
f 54/3/2 38/3/2 55/3/2
f 39/3/2 40/3/2 56/3/2
f 55/2/2 39/2/2 56/2/2
f 40/2/2 41/2/2 57/2/2
f 56/3/2 40/3/2 57/3/2
f 57/2/2 41/2/2 58/2/2
f 61/2/3 60/2/3 59/2/3
f 62/2/3 60/2/3 61/2/3
f 63/3/3 62/3/3 61/3/3
f 64/3/3 62/3/3 63/3/3
f 65/2/3 64/2/3 63/2/3
f 66/2/3 64/2/3 65/2/3
f 67/3/3 66/3/3 65/3/3
f 68/3/3 66/3/3 67/3/3
f 69/2/3 68/2/3 67/2/3
f 70/2/3 68/2/3 69/2/3
f 71/3/3 70/3/3 69/3/3
f 72/3/3 70/3/3 71/3/3
f 73/2/3 72/2/3 71/2/3
f 74/2/3 72/2/3 73/2/3
f 75/3/3 74/3/3 73/3/3
f 76/3/3 74/3/3 75/3/3
f 77/2/3 76/2/3 75/2/3
f 78/2/3 76/2/3 77/2/3
f 79/3/3 78/3/3 77/3/3
f 80/3/3 78/3/3 79/3/3
f 81/2/3 80/2/3 79/2/3
f 82/2/3 80/2/3 81/2/3
f 83/3/3 82/3/3 81/3/3
f 84/3/3 82/3/3 83/3/3
f 85/2/3 84/2/3 83/2/3
f 86/2/3 84/2/3 85/2/3
f 87/3/3 86/3/3 85/3/3
f 88/3/3 86/3/3 87/3/3
f 89/2/3 88/2/3 87/2/3
f 90/2/3 88/2/3 89/2/3
f 91/3/3 90/3/3 89/3/3
f 92/3/3 90/3/3 91/3/3
f 93/2/4 94/2/4 95/2/4
f 95/2/4 94/2/4 96/2/4
f 95/3/4 96/3/4 97/3/4
f 97/3/4 96/3/4 98/3/4
f 97/2/4 98/2/4 99/2/4
f 99/2/4 98/2/4 100/2/4
f 99/3/4 100/3/4 101/3/4
f 101/3/4 100/3/4 102/3/4
f 101/2/4 102/2/4 103/2/4
f 103/2/4 102/2/4 104/2/4
f 105/2/4 106/2/4 107/2/4
f 107/2/4 106/2/4 108/2/4
f 107/3/4 108/3/4 109/3/4
f 109/3/4 108/3/4 110/3/4
f 109/1/4 110/1/4 111/1/4
f 111/1/4 110/1/4 112/1/4
f 111/3/4 112/3/4 113/3/4
f 113/3/4 112/3/4 114/3/4
f 113/2/4 114/2/4 115/2/4
f 115/2/4 114/2/4 116/2/4
f 134/2/5 132/2/5 131/2/5
f 135/3/5 133/3/5 132/3/5
f 135/2/5 132/2/5 134/2/5
f 136/3/5 133/3/5 135/3/5
f 137/2/5 134/2/5 131/2/5
f 138/3/5 135/3/5 134/3/5
f 138/2/5 134/2/5 137/2/5
f 139/2/5 136/2/5 135/2/5
f 139/3/5 135/3/5 138/3/5
f 140/2/5 137/2/5 131/2/5
f 141/3/5 138/3/5 137/3/5
f 141/2/5 137/2/5 140/2/5
f 142/2/5 139/2/5 138/2/5
f 142/3/5 138/3/5 141/3/5
f 143/2/5 118/2/5 117/2/5
f 144/3/5 119/3/5 118/3/5
f 144/2/5 118/2/5 143/2/5
f 145/2/5 120/2/5 119/2/5
f 145/3/5 119/3/5 144/3/5
f 146/3/5 121/3/5 120/3/5
f 146/2/5 120/2/5 145/2/5
f 147/2/5 122/2/5 121/2/5
f 147/3/5 121/3/5 146/3/5
f 148/3/5 123/3/5 122/3/5
f 148/2/5 122/2/5 147/2/5
f 149/2/5 124/2/5 123/2/5
f 149/3/5 123/3/5 148/3/5
f 150/3/5 125/3/5 124/3/5
f 150/2/5 124/2/5 149/2/5
f 151/2/5 126/2/5 125/2/5
f 151/3/5 125/3/5 150/3/5
f 152/3/5 127/3/5 126/3/5
f 152/2/5 126/2/5 151/2/5
f 153/2/5 128/2/5 127/2/5
f 153/3/5 127/3/5 152/3/5
f 154/3/5 129/3/5 128/3/5
f 154/2/5 128/2/5 153/2/5
f 155/2/5 130/2/5 129/2/5
f 155/3/5 129/3/5 154/3/5
f 156/3/5 131/3/5 130/3/5
f 156/2/5 130/2/5 155/2/5
f 157/2/5 140/2/5 131/2/5
f 157/3/5 131/3/5 156/3/5
f 158/3/5 141/3/5 140/3/5
f 158/2/5 140/2/5 157/2/5
f 159/2/5 142/2/5 141/2/5
f 159/3/5 141/3/5 158/3/5
f 160/3/5 144/3/5 143/3/5
f 160/3/5 145/3/5 144/3/5
f 160/2/5 159/2/5 158/2/5
f 160/3/5 158/3/5 157/3/5
f 160/3/5 157/3/5 156/3/5
f 160/3/5 156/3/5 155/3/5
f 160/3/5 146/3/5 145/3/5
f 160/3/5 147/3/5 146/3/5
f 160/3/5 155/3/5 154/3/5
f 160/3/5 154/3/5 153/3/5
f 160/3/5 153/3/5 152/3/5
f 160/3/5 152/3/5 151/3/5
f 160/3/5 151/3/5 150/3/5
f 160/3/5 150/3/5 149/3/5
f 160/3/5 149/3/5 148/3/5
f 160/3/5 148/3/5 147/3/5
f 161/2/5 139/2/5 142/2/5
f 161/2/5 159/2/5 160/2/5
f 161/2/5 142/2/5 159/2/5
f 161/2/5 136/2/5 139/2/5
f 162/3/5 160/3/5 143/3/5
f 162/3/5 161/3/5 160/3/5
f 163/3/5 161/3/5 162/3/5
f 164/3/5 162/3/5 143/3/5
f 164/2/5 163/2/5 162/2/5
f 165/2/5 163/2/5 164/2/5
f 166/3/5 164/3/5 143/3/5
f 166/3/5 165/3/5 164/3/5
f 167/3/5 165/3/5 166/3/5
f 168/3/5 166/3/5 143/3/5
f 169/3/5 166/3/5 168/3/5
f 170/3/5 166/3/5 169/3/5
f 171/3/5 166/3/5 170/3/5
f 172/3/5 166/3/5 171/3/5
f 173/3/5 166/3/5 172/3/5
f 174/3/5 166/3/5 173/3/5
f 175/3/5 166/3/5 174/3/5
f 176/3/5 166/3/5 175/3/5
f 177/3/5 166/3/5 176/3/5
f 178/1/5 169/1/5 168/1/5
f 179/3/5 170/3/5 169/3/5
f 179/1/5 169/1/5 178/1/5
f 180/1/5 171/1/5 170/1/5
f 180/3/5 170/3/5 179/3/5
f 181/3/5 172/3/5 171/3/5
f 181/1/5 171/1/5 180/1/5
f 182/1/5 173/1/5 172/1/5
f 182/3/5 172/3/5 181/3/5
f 183/3/5 174/3/5 173/3/5
f 183/1/5 173/1/5 182/1/5
f 184/1/5 175/1/5 174/1/5
f 184/3/5 174/3/5 183/3/5
f 185/3/5 176/3/5 175/3/5
f 185/1/5 175/1/5 184/1/5
f 186/1/5 177/1/5 176/1/5
f 186/3/5 176/3/5 185/3/5
f 187/1/5 177/1/5 186/1/5
f 188/3/5 179/3/5 178/3/5
f 188/1/5 177/1/5 187/1/5
f 188/3/5 187/3/5 186/3/5
f 188/3/5 186/3/5 185/3/5
f 188/3/5 185/3/5 184/3/5
f 188/3/5 184/3/5 183/3/5
f 188/3/5 183/3/5 182/3/5
f 188/3/5 182/3/5 181/3/5
f 188/3/5 181/3/5 180/3/5
f 188/3/5 180/3/5 179/3/5
f 189/3/5 166/3/5 177/3/5
f 189/1/5 177/1/5 188/1/5
f 190/2/5 167/2/5 166/2/5
f 190/3/5 166/3/5 189/3/5
f 191/2/5 167/2/5 190/2/5
f 192/3/5 189/3/5 188/3/5
f 192/3/5 190/3/5 189/3/5
f 192/3/5 191/3/5 190/3/5
f 193/3/5 191/3/5 192/3/5
f 194/3/5 188/3/5 178/3/5
f 194/3/5 192/3/5 188/3/5
f 195/3/5 192/3/5 194/3/5
f 196/2/5 193/2/5 192/2/5
f 196/3/5 192/3/5 195/3/5
f 197/2/5 193/2/5 196/2/5
f 198/1/5 195/1/5 194/1/5
f 198/3/5 194/3/5 178/3/5
f 199/3/5 197/3/5 196/3/5
f 199/1/5 195/1/5 198/1/5
f 199/3/5 196/3/5 195/3/5
f 200/3/5 197/3/5 199/3/5
f 201/3/5 197/3/5 200/3/5
f 202/3/5 198/3/5 178/3/5
f 202/3/5 199/3/5 198/3/5
f 202/3/5 200/3/5 199/3/5
f 203/3/5 200/3/5 202/3/5
f 204/3/5 200/3/5 203/3/5
f 205/3/5 200/3/5 204/3/5
f 206/3/5 200/3/5 205/3/5
f 207/3/5 200/3/5 206/3/5
f 208/2/5 207/2/5 206/2/5
f 209/3/5 200/3/5 207/3/5
f 209/2/5 207/2/5 208/2/5
f 210/3/5 200/3/5 209/3/5
f 211/3/5 200/3/5 210/3/5
f 212/3/5 200/3/5 211/3/5
f 213/2/5 208/2/5 206/2/5
f 214/3/5 209/3/5 208/3/5
f 214/2/5 208/2/5 213/2/5
f 215/2/5 210/2/5 209/2/5
f 215/3/5 209/3/5 214/3/5
f 216/2/5 213/2/5 206/2/5
f 217/3/5 214/3/5 213/3/5
f 217/2/5 213/2/5 216/2/5
f 218/2/5 215/2/5 214/2/5
f 218/3/5 214/3/5 217/3/5
f 219/2/5 201/2/5 200/2/5
f 219/3/5 200/3/5 212/3/5
f 220/2/5 201/2/5 219/2/5
f 221/2/5 203/2/5 202/2/5
f 222/3/5 204/3/5 203/3/5
f 222/2/5 203/2/5 221/2/5
f 223/2/5 205/2/5 204/2/5
f 223/3/5 204/3/5 222/3/5
f 224/3/5 206/3/5 205/3/5
f 224/2/5 205/2/5 223/2/5
f 225/2/5 216/2/5 206/2/5
f 225/3/5 206/3/5 224/3/5
f 226/3/5 217/3/5 216/3/5
f 226/2/5 216/2/5 225/2/5
f 227/2/5 218/2/5 217/2/5
f 227/3/5 217/3/5 226/3/5
f 228/3/5 219/3/5 212/3/5
f 228/3/5 220/3/5 219/3/5
f 229/3/5 220/3/5 228/3/5
f 230/3/5 211/3/5 210/3/5
f 230/1/5 212/1/5 211/1/5
f 231/3/5 228/3/5 212/3/5
f 231/1/5 212/1/5 230/1/5
f 232/3/5 230/3/5 210/3/5
f 232/3/5 231/3/5 230/3/5
f 233/3/5 228/3/5 231/3/5
f 233/3/5 231/3/5 232/3/5
f 234/2/5 227/2/5 226/2/5
f 235/2/5 215/2/5 218/2/5
f 235/2/5 227/2/5 234/2/5
f 235/3/5 232/3/5 210/3/5
f 235/2/5 210/2/5 215/2/5
f 235/2/5 218/2/5 227/2/5
f 236/2/5 229/2/5 228/2/5
f 236/3/5 228/3/5 233/3/5
f 237/2/5 229/2/5 236/2/5
f 238/3/5 235/3/5 234/3/5
f 239/3/5 232/3/5 235/3/5
f 239/3/5 235/3/5 238/3/5
f 240/3/5 236/3/5 233/3/5
f 240/3/5 237/3/5 236/3/5
f 241/3/5 237/3/5 240/3/5
f 242/1/5 233/1/5 232/1/5
f 242/3/5 232/3/5 239/3/5
f 243/3/5 240/3/5 233/3/5
f 243/1/5 233/1/5 242/1/5
f 244/2/5 239/2/5 238/2/5
f 245/3/5 242/3/5 239/3/5
f 245/2/5 239/2/5 244/2/5
f 245/3/5 243/3/5 242/3/5
f 246/2/5 241/2/5 240/2/5
f 246/3/5 243/3/5 245/3/5
f 246/3/5 240/3/5 243/3/5
f 247/2/5 241/2/5 246/2/5
f 248/3/5 245/3/5 244/3/5
f 248/3/5 246/3/5 245/3/5
f 248/3/5 247/3/5 246/3/5
f 249/3/5 247/3/5 248/3/5
f 250/3/5 247/3/5 249/3/5
f 251/3/5 247/3/5 250/3/5
f 252/3/5 247/3/5 251/3/5
f 253/3/5 247/3/5 252/3/5
f 254/2/5 249/2/5 248/2/5
f 255/3/5 250/3/5 249/3/5
f 255/2/5 249/2/5 254/2/5
f 256/1/5 251/1/5 250/1/5
f 256/3/5 250/3/5 255/3/5
f 257/3/5 252/3/5 251/3/5
f 257/1/5 251/1/5 256/1/5
f 258/2/5 253/2/5 252/2/5
f 258/3/5 252/3/5 257/3/5
f 259/2/5 253/2/5 258/2/5
f 274/2/6 275/2/6 277/2/6
f 275/3/6 276/3/6 278/3/6
f 277/2/6 275/2/6 278/2/6
f 278/3/6 276/3/6 279/3/6
f 274/2/6 277/2/6 280/2/6
f 277/3/6 278/3/6 281/3/6
f 280/2/6 277/2/6 281/2/6
f 278/2/6 279/2/6 282/2/6
f 281/3/6 278/3/6 282/3/6
f 274/2/6 280/2/6 283/2/6
f 280/3/6 281/3/6 284/3/6
f 283/2/6 280/2/6 284/2/6
f 281/2/6 282/2/6 285/2/6
f 284/3/6 281/3/6 285/3/6
f 260/2/6 261/2/6 286/2/6
f 261/3/6 262/3/6 287/3/6
f 286/2/6 261/2/6 287/2/6
f 262/2/6 263/2/6 288/2/6
f 287/3/6 262/3/6 288/3/6
f 263/3/6 264/3/6 289/3/6
f 288/2/6 263/2/6 289/2/6
f 264/2/6 265/2/6 290/2/6
f 289/3/6 264/3/6 290/3/6
f 265/3/6 266/3/6 291/3/6
f 290/2/6 265/2/6 291/2/6
f 266/2/6 267/2/6 292/2/6
f 291/3/6 266/3/6 292/3/6
f 267/3/6 268/3/6 293/3/6
f 292/2/6 267/2/6 293/2/6
f 268/2/6 269/2/6 294/2/6
f 293/3/6 268/3/6 294/3/6
f 269/3/6 270/3/6 295/3/6
f 294/2/6 269/2/6 295/2/6
f 270/2/6 271/2/6 296/2/6
f 295/3/6 270/3/6 296/3/6
f 271/3/6 272/3/6 297/3/6
f 296/2/6 271/2/6 297/2/6
f 272/2/6 273/2/6 298/2/6
f 297/3/6 272/3/6 298/3/6
f 273/3/6 274/3/6 299/3/6
f 298/2/6 273/2/6 299/2/6
f 274/2/6 283/2/6 300/2/6
f 299/3/6 274/3/6 300/3/6
f 283/3/6 284/3/6 301/3/6
f 300/2/6 283/2/6 301/2/6
f 284/2/6 285/2/6 302/2/6
f 301/3/6 284/3/6 302/3/6
f 286/3/6 287/3/6 303/3/6
f 287/3/6 288/3/6 303/3/6
f 301/2/6 302/2/6 303/2/6
f 300/3/6 301/3/6 303/3/6
f 299/3/6 300/3/6 303/3/6
f 298/3/6 299/3/6 303/3/6
f 288/3/6 289/3/6 303/3/6
f 289/3/6 290/3/6 303/3/6
f 297/3/6 298/3/6 303/3/6
f 296/3/6 297/3/6 303/3/6
f 295/3/6 296/3/6 303/3/6
f 294/3/6 295/3/6 303/3/6
f 293/3/6 294/3/6 303/3/6
f 292/3/6 293/3/6 303/3/6
f 291/3/6 292/3/6 303/3/6
f 290/3/6 291/3/6 303/3/6
f 285/2/6 282/2/6 304/2/6
f 303/2/6 302/2/6 304/2/6
f 302/2/6 285/2/6 304/2/6
f 282/2/6 279/2/6 304/2/6
f 286/3/6 303/3/6 305/3/6
f 303/3/6 304/3/6 305/3/6
f 305/3/6 304/3/6 306/3/6
f 286/3/6 305/3/6 307/3/6
f 305/2/6 306/2/6 307/2/6
f 307/2/6 306/2/6 308/2/6
f 286/3/6 307/3/6 309/3/6
f 307/3/6 308/3/6 309/3/6
f 309/3/6 308/3/6 310/3/6
f 286/3/6 309/3/6 311/3/6
f 311/3/6 309/3/6 312/3/6
f 312/3/6 309/3/6 313/3/6
f 313/3/6 309/3/6 314/3/6
f 314/3/6 309/3/6 315/3/6
f 315/3/6 309/3/6 316/3/6
f 316/3/6 309/3/6 317/3/6
f 317/3/6 309/3/6 318/3/6
f 318/3/6 309/3/6 319/3/6
f 319/3/6 309/3/6 320/3/6
f 311/1/6 312/1/6 321/1/6
f 312/3/6 313/3/6 322/3/6
f 321/1/6 312/1/6 322/1/6
f 313/1/6 314/1/6 323/1/6
f 322/3/6 313/3/6 323/3/6
f 314/3/6 315/3/6 324/3/6
f 323/1/6 314/1/6 324/1/6
f 315/1/6 316/1/6 325/1/6
f 324/3/6 315/3/6 325/3/6
f 316/3/6 317/3/6 326/3/6
f 325/1/6 316/1/6 326/1/6
f 317/1/6 318/1/6 327/1/6
f 326/3/6 317/3/6 327/3/6
f 318/3/6 319/3/6 328/3/6
f 327/1/6 318/1/6 328/1/6
f 319/1/6 320/1/6 329/1/6
f 328/3/6 319/3/6 329/3/6
f 329/1/6 320/1/6 330/1/6
f 321/3/6 322/3/6 331/3/6
f 330/1/6 320/1/6 331/1/6
f 329/3/6 330/3/6 331/3/6
f 328/3/6 329/3/6 331/3/6
f 327/3/6 328/3/6 331/3/6
f 326/3/6 327/3/6 331/3/6
f 325/3/6 326/3/6 331/3/6
f 324/3/6 325/3/6 331/3/6
f 323/3/6 324/3/6 331/3/6
f 322/3/6 323/3/6 331/3/6
f 320/3/6 309/3/6 332/3/6
f 331/1/6 320/1/6 332/1/6
f 309/2/6 310/2/6 333/2/6
f 332/3/6 309/3/6 333/3/6
f 333/2/6 310/2/6 334/2/6
f 331/3/6 332/3/6 335/3/6
f 332/3/6 333/3/6 335/3/6
f 333/3/6 334/3/6 335/3/6
f 335/3/6 334/3/6 336/3/6
f 321/3/6 331/3/6 337/3/6
f 331/3/6 335/3/6 337/3/6
f 337/3/6 335/3/6 338/3/6
f 335/2/6 336/2/6 339/2/6
f 338/3/6 335/3/6 339/3/6
f 339/2/6 336/2/6 340/2/6
f 337/1/6 338/1/6 341/1/6
f 321/3/6 337/3/6 341/3/6
f 339/3/6 340/3/6 342/3/6
f 341/1/6 338/1/6 342/1/6
f 338/3/6 339/3/6 342/3/6
f 342/3/6 340/3/6 343/3/6
f 343/3/6 340/3/6 344/3/6
f 321/3/6 341/3/6 345/3/6
f 341/3/6 342/3/6 345/3/6
f 342/3/6 343/3/6 345/3/6
f 345/3/6 343/3/6 346/3/6
f 346/3/6 343/3/6 347/3/6
f 347/3/6 343/3/6 348/3/6
f 348/3/6 343/3/6 349/3/6
f 349/3/6 343/3/6 350/3/6
f 349/2/6 350/2/6 351/2/6
f 350/3/6 343/3/6 352/3/6
f 351/2/6 350/2/6 352/2/6
f 352/3/6 343/3/6 353/3/6
f 353/3/6 343/3/6 354/3/6
f 354/3/6 343/3/6 355/3/6
f 349/2/6 351/2/6 356/2/6
f 351/3/6 352/3/6 357/3/6
f 356/2/6 351/2/6 357/2/6
f 352/2/6 353/2/6 358/2/6
f 357/3/6 352/3/6 358/3/6
f 349/2/6 356/2/6 359/2/6
f 356/3/6 357/3/6 360/3/6
f 359/2/6 356/2/6 360/2/6
f 357/2/6 358/2/6 361/2/6
f 360/3/6 357/3/6 361/3/6
f 343/2/6 344/2/6 362/2/6
f 355/3/6 343/3/6 362/3/6
f 362/2/6 344/2/6 363/2/6
f 345/2/6 346/2/6 364/2/6
f 346/3/6 347/3/6 365/3/6
f 364/2/6 346/2/6 365/2/6
f 347/2/6 348/2/6 366/2/6
f 365/3/6 347/3/6 366/3/6
f 348/3/6 349/3/6 367/3/6
f 366/2/6 348/2/6 367/2/6
f 349/2/6 359/2/6 368/2/6
f 367/3/6 349/3/6 368/3/6
f 359/3/6 360/3/6 369/3/6
f 368/2/6 359/2/6 369/2/6
f 360/2/6 361/2/6 370/2/6
f 369/3/6 360/3/6 370/3/6
f 355/3/6 362/3/6 371/3/6
f 362/3/6 363/3/6 371/3/6
f 371/3/6 363/3/6 372/3/6
f 353/3/6 354/3/6 373/3/6
f 354/1/6 355/1/6 373/1/6
f 355/3/6 371/3/6 374/3/6
f 373/1/6 355/1/6 374/1/6
f 353/3/6 373/3/6 375/3/6
f 373/3/6 374/3/6 375/3/6
f 374/3/6 371/3/6 376/3/6
f 375/3/6 374/3/6 376/3/6
f 369/2/6 370/2/6 377/2/6
f 361/2/6 358/2/6 378/2/6
f 377/2/6 370/2/6 378/2/6
f 353/3/6 375/3/6 378/3/6
f 358/2/6 353/2/6 378/2/6
f 370/2/6 361/2/6 378/2/6
f 371/2/6 372/2/6 379/2/6
f 376/3/6 371/3/6 379/3/6
f 379/2/6 372/2/6 380/2/6
f 377/3/6 378/3/6 381/3/6
f 378/3/6 375/3/6 382/3/6
f 381/3/6 378/3/6 382/3/6
f 376/3/6 379/3/6 383/3/6
f 379/3/6 380/3/6 383/3/6
f 383/3/6 380/3/6 384/3/6
f 375/1/6 376/1/6 385/1/6
f 382/3/6 375/3/6 385/3/6
f 376/3/6 383/3/6 386/3/6
f 385/1/6 376/1/6 386/1/6
f 381/2/6 382/2/6 387/2/6
f 382/3/6 385/3/6 388/3/6
f 387/2/6 382/2/6 388/2/6
f 385/3/6 386/3/6 388/3/6
f 383/2/6 384/2/6 389/2/6
f 388/3/6 386/3/6 389/3/6
f 386/3/6 383/3/6 389/3/6
f 389/2/6 384/2/6 390/2/6
f 387/3/6 388/3/6 391/3/6
f 388/3/6 389/3/6 391/3/6
f 389/3/6 390/3/6 391/3/6
f 391/3/6 390/3/6 392/3/6
f 392/3/6 390/3/6 393/3/6
f 393/3/6 390/3/6 394/3/6
f 394/3/6 390/3/6 395/3/6
f 395/3/6 390/3/6 396/3/6
f 391/2/6 392/2/6 397/2/6
f 392/3/6 393/3/6 398/3/6
f 397/2/6 392/2/6 398/2/6
f 393/1/6 394/1/6 399/1/6
f 398/3/6 393/3/6 399/3/6
f 394/3/6 395/3/6 400/3/6
f 399/1/6 394/1/6 400/1/6
f 395/2/6 396/2/6 401/2/6
f 400/3/6 395/3/6 401/3/6
f 401/2/6 396/2/6 402/2/6
