# MagicaVoxel @ ephtracy

# material
mtllib StraightRoad.mtl
usemtl palette

# normals
vn -1 0 0
vn 1 0 0
vn 0 0 1
vn 0 0 -1
vn 0 -1 0
vn 0 1 0

# texcoords
vt 0.0175781 0.5
vt 0.982422 0.5
vt 0.986328 0.5
vt 0.990234 0.5

# verts
v -13 0 25
v -13 0 23
v -13 0 22
v -13 0 18
v -13 0 17
v -13 0 13
v -13 0 12
v -13 0 8
v -13 0 7
v -13 0 3
v -13 0 2
v -13 0 -2
v -13 0 -3
v -13 0 -7
v -13 0 -8
v -13 0 -12
v -13 0 -13
v -13 0 -17
v -13 0 -18
v -13 0 -22
v -13 0 -23
v -13 0 -25
v -13 1 25
v -13 1 23
v -13 1 22
v -13 1 18
v -13 1 17
v -13 1 13
v -13 1 12
v -13 1 8
v -13 1 7
v -13 1 3
v -13 1 2
v -13 1 -2
v -13 1 -3
v -13 1 -7
v -13 1 -8
v -13 1 -12
v -13 1 -13
v -13 1 -17
v -13 1 -18
v -13 1 -22
v -13 1 -23
v -13 1 -25
v 13 0 25
v 13 0 23
v 13 0 22
v 13 0 18
v 13 0 17
v 13 0 13
v 13 0 12
v 13 0 8
v 13 0 7
v 13 0 3
v 13 0 2
v 13 0 -2
v 13 0 -3
v 13 0 -7
v 13 0 -8
v 13 0 -12
v 13 0 -13
v 13 0 -17
v 13 0 -18
v 13 0 -22
v 13 0 -23
v 13 0 -25
v 13 1 25
v 13 1 23
v 13 1 22
v 13 1 18
v 13 1 17
v 13 1 13
v 13 1 12
v 13 1 8
v 13 1 7
v 13 1 3
v 13 1 2
v 13 1 -2
v 13 1 -3
v 13 1 -7
v 13 1 -8
v 13 1 -12
v 13 1 -13
v 13 1 -17
v 13 1 -18
v 13 1 -22
v 13 1 -23
v 13 1 -25
v -13 0 25
v -13 1 25
v -9 0 25
v -9 1 25
v -1 0 25
v -1 1 25
v 1 0 25
v 1 1 25
v 9 0 25
v 9 1 25
v 13 0 25
v 13 1 25
v -13 0 -25
v -13 1 -25
v -9 0 -25
v -9 1 -25
v -1 0 -25
v -1 1 -25
v 1 0 -25
v 1 1 -25
v 9 0 -25
v 9 1 -25
v 13 0 -25
v 13 1 -25
v -13 0 25
v -9 0 25
v -1 0 25
v 1 0 25
v 9 0 25
v 13 0 25
v -13 0 23
v -9 0 23
v -1 0 23
v 1 0 23
v 9 0 23
v 13 0 23
v -13 0 22
v -9 0 22
v 9 0 22
v 13 0 22
v -1 0 21
v 1 0 21
v -13 0 18
v -9 0 18
v 9 0 18
v 13 0 18
v -13 0 17
v -9 0 17
v 9 0 17
v 13 0 17
v -1 0 16
v 1 0 16
v -1 0 14
v 1 0 14
v -13 0 13
v -9 0 13
v 9 0 13
v 13 0 13
v -13 0 12
v -9 0 12
v 9 0 12
v 13 0 12
v -1 0 10
v 1 0 10
v -13 0 8
v -9 0 8
v -1 0 8
v 1 0 8
v 9 0 8
v 13 0 8
v -13 0 7
v -9 0 7
v 9 0 7
v 13 0 7
v -1 0 4
v 1 0 4
v -13 0 3
v -9 0 3
v 9 0 3
v 13 0 3
v -13 0 2
v -9 0 2
v -1 0 2
v 1 0 2
v 9 0 2
v 13 0 2
v -13 0 -2
v -9 0 -2
v -1 0 -2
v 1 0 -2
v 9 0 -2
v 13 0 -2
v -13 0 -3
v -9 0 -3
v 9 0 -3
v 13 0 -3
v -1 0 -4
v 1 0 -4
v -13 0 -7
v -9 0 -7
v 9 0 -7
v 13 0 -7
v -13 0 -8
v -9 0 -8
v -1 0 -8
v 1 0 -8
v 9 0 -8
v 13 0 -8
v -1 0 -10
v 1 0 -10
v -13 0 -12
v -9 0 -12
v 9 0 -12
v 13 0 -12
v -13 0 -13
v -9 0 -13
v 9 0 -13
v 13 0 -13
v -1 0 -14
v 1 0 -14
v -1 0 -16
v 1 0 -16
v -13 0 -17
v -9 0 -17
v 9 0 -17
v 13 0 -17
v -13 0 -18
v -9 0 -18
v 9 0 -18
v 13 0 -18
v -1 0 -21
v 1 0 -21
v -13 0 -22
v -9 0 -22
v 9 0 -22
v 13 0 -22
v -13 0 -23
v -9 0 -23
v -1 0 -23
v 1 0 -23
v 9 0 -23
v 13 0 -23
v -13 0 -25
v -9 0 -25
v -1 0 -25
v 1 0 -25
v 9 0 -25
v 13 0 -25
v -13 1 25
v -9 1 25
v -1 1 25
v 1 1 25
v 9 1 25
v 13 1 25
v -13 1 23
v -9 1 23
v -1 1 23
v 1 1 23
v 9 1 23
v 13 1 23
v -13 1 22
v -9 1 22
v 9 1 22
v 13 1 22
v -1 1 21
v 1 1 21
v -13 1 18
v -9 1 18
v 9 1 18
v 13 1 18
v -13 1 17
v -9 1 17
v 9 1 17
v 13 1 17
v -1 1 16
v 1 1 16
v -1 1 14
v 1 1 14
v -13 1 13
v -9 1 13
v 9 1 13
v 13 1 13
v -13 1 12
v -9 1 12
v 9 1 12
v 13 1 12
v -1 1 10
v 1 1 10
v -13 1 8
v -9 1 8
v -1 1 8
v 1 1 8
v 9 1 8
v 13 1 8
v -13 1 7
v -9 1 7
v 9 1 7
v 13 1 7
v -1 1 4
v 1 1 4
v -13 1 3
v -9 1 3
v 9 1 3
v 13 1 3
v -13 1 2
v -9 1 2
v -1 1 2
v 1 1 2
v 9 1 2
v 13 1 2
v -13 1 -2
v -9 1 -2
v -1 1 -2
v 1 1 -2
v 9 1 -2
v 13 1 -2
v -13 1 -3
v -9 1 -3
v 9 1 -3
v 13 1 -3
v -1 1 -4
v 1 1 -4
v -13 1 -7
v -9 1 -7
v 9 1 -7
v 13 1 -7
v -13 1 -8
v -9 1 -8
v -1 1 -8
v 1 1 -8
v 9 1 -8
v 13 1 -8
v -1 1 -10
v 1 1 -10
v -13 1 -12
v -9 1 -12
v 9 1 -12
v 13 1 -12
v -13 1 -13
v -9 1 -13
v 9 1 -13
v 13 1 -13
v -1 1 -14
v 1 1 -14
v -1 1 -16
v 1 1 -16
v -13 1 -17
v -9 1 -17
v 9 1 -17
v 13 1 -17
v -13 1 -18
v -9 1 -18
v 9 1 -18
v 13 1 -18
v -1 1 -21
v 1 1 -21
v -13 1 -22
v -9 1 -22
v 9 1 -22
v 13 1 -22
v -13 1 -23
v -9 1 -23
v -1 1 -23
v 1 1 -23
v 9 1 -23
v 13 1 -23
v -13 1 -25
v -9 1 -25
v -1 1 -25
v 1 1 -25
v 9 1 -25
v 13 1 -25

# faces
f 23/2/1 2/2/1 1/2/1
f 24/3/1 3/3/1 2/3/1
f 24/2/1 2/2/1 23/2/1
f 25/2/1 4/2/1 3/2/1
f 25/3/1 3/3/1 24/3/1
f 26/3/1 5/3/1 4/3/1
f 26/2/1 4/2/1 25/2/1
f 27/2/1 6/2/1 5/2/1
f 27/3/1 5/3/1 26/3/1
f 28/3/1 7/3/1 6/3/1
f 28/2/1 6/2/1 27/2/1
f 29/2/1 8/2/1 7/2/1
f 29/3/1 7/3/1 28/3/1
f 30/3/1 9/3/1 8/3/1
f 30/2/1 8/2/1 29/2/1
f 31/2/1 10/2/1 9/2/1
f 31/3/1 9/3/1 30/3/1
f 32/3/1 11/3/1 10/3/1
f 32/2/1 10/2/1 31/2/1
f 33/2/1 12/2/1 11/2/1
f 33/3/1 11/3/1 32/3/1
f 34/3/1 13/3/1 12/3/1
f 34/2/1 12/2/1 33/2/1
f 35/2/1 14/2/1 13/2/1
f 35/3/1 13/3/1 34/3/1
f 36/3/1 15/3/1 14/3/1
f 36/2/1 14/2/1 35/2/1
f 37/2/1 16/2/1 15/2/1
f 37/3/1 15/3/1 36/3/1
f 38/3/1 17/3/1 16/3/1
f 38/2/1 16/2/1 37/2/1
f 39/2/1 18/2/1 17/2/1
f 39/3/1 17/3/1 38/3/1
f 40/3/1 19/3/1 18/3/1
f 40/2/1 18/2/1 39/2/1
f 41/2/1 20/2/1 19/2/1
f 41/3/1 19/3/1 40/3/1
f 42/3/1 21/3/1 20/3/1
f 42/2/1 20/2/1 41/2/1
f 43/2/1 22/2/1 21/2/1
f 43/3/1 21/3/1 42/3/1
f 44/2/1 22/2/1 43/2/1
f 45/2/2 46/2/2 67/2/2
f 46/3/2 47/3/2 68/3/2
f 67/2/2 46/2/2 68/2/2
f 47/2/2 48/2/2 69/2/2
f 68/3/2 47/3/2 69/3/2
f 48/3/2 49/3/2 70/3/2
f 69/2/2 48/2/2 70/2/2
f 49/2/2 50/2/2 71/2/2
f 70/3/2 49/3/2 71/3/2
f 50/3/2 51/3/2 72/3/2
f 71/2/2 50/2/2 72/2/2
f 51/2/2 52/2/2 73/2/2
f 72/3/2 51/3/2 73/3/2
f 52/3/2 53/3/2 74/3/2
f 73/2/2 52/2/2 74/2/2
f 53/2/2 54/2/2 75/2/2
f 74/3/2 53/3/2 75/3/2
f 54/3/2 55/3/2 76/3/2
f 75/2/2 54/2/2 76/2/2
f 55/2/2 56/2/2 77/2/2
f 76/3/2 55/3/2 77/3/2
f 56/3/2 57/3/2 78/3/2
f 77/2/2 56/2/2 78/2/2
f 57/2/2 58/2/2 79/2/2
f 78/3/2 57/3/2 79/3/2
f 58/3/2 59/3/2 80/3/2
f 79/2/2 58/2/2 80/2/2
f 59/2/2 60/2/2 81/2/2
f 80/3/2 59/3/2 81/3/2
f 60/3/2 61/3/2 82/3/2
f 81/2/2 60/2/2 82/2/2
f 61/2/2 62/2/2 83/2/2
f 82/3/2 61/3/2 83/3/2
f 62/3/2 63/3/2 84/3/2
f 83/2/2 62/2/2 84/2/2
f 63/2/2 64/2/2 85/2/2
f 84/3/2 63/3/2 85/3/2
f 64/3/2 65/3/2 86/3/2
f 85/2/2 64/2/2 86/2/2
f 65/2/2 66/2/2 87/2/2
f 86/3/2 65/3/2 87/3/2
f 87/2/2 66/2/2 88/2/2
f 91/2/3 90/2/3 89/2/3
f 92/2/3 90/2/3 91/2/3
f 93/4/3 92/4/3 91/4/3
f 94/4/3 92/4/3 93/4/3
f 95/1/3 94/1/3 93/1/3
f 96/1/3 94/1/3 95/1/3
f 97/4/3 96/4/3 95/4/3
f 98/4/3 96/4/3 97/4/3
f 99/2/3 98/2/3 97/2/3
f 100/2/3 98/2/3 99/2/3
f 101/2/4 102/2/4 103/2/4
f 103/2/4 102/2/4 104/2/4
f 103/4/4 104/4/4 105/4/4
f 105/4/4 104/4/4 106/4/4
f 105/1/4 106/1/4 107/1/4
f 107/1/4 106/1/4 108/1/4
f 107/4/4 108/4/4 109/4/4
f 109/4/4 108/4/4 110/4/4
f 109/2/4 110/2/4 111/2/4
f 111/2/4 110/2/4 112/2/4
f 119/2/5 114/2/5 113/2/5
f 120/4/5 115/4/5 114/4/5
f 120/2/5 114/2/5 119/2/5
f 121/1/5 116/1/5 115/1/5
f 121/4/5 115/4/5 120/4/5
f 122/4/5 117/4/5 116/4/5
f 122/1/5 116/1/5 121/1/5
f 123/2/5 118/2/5 117/2/5
f 123/4/5 117/4/5 122/4/5
f 124/2/5 118/2/5 123/2/5
f 125/3/5 120/3/5 119/3/5
f 126/4/5 122/4/5 121/4/5
f 126/3/5 120/3/5 125/3/5
f 126/4/5 121/4/5 120/4/5
f 126/4/5 123/4/5 122/4/5
f 127/3/5 124/3/5 123/3/5
f 127/4/5 123/4/5 126/4/5
f 128/3/5 124/3/5 127/3/5
f 129/4/5 127/4/5 126/4/5
f 130/4/5 127/4/5 129/4/5
f 131/2/5 126/2/5 125/2/5
f 132/4/5 129/4/5 126/4/5
f 132/2/5 126/2/5 131/2/5
f 133/4/5 127/4/5 130/4/5
f 133/2/5 128/2/5 127/2/5
f 134/2/5 128/2/5 133/2/5
f 135/3/5 132/3/5 131/3/5
f 136/4/5 129/4/5 132/4/5
f 136/3/5 132/3/5 135/3/5
f 137/4/5 133/4/5 130/4/5
f 137/3/5 134/3/5 133/3/5
f 138/3/5 134/3/5 137/3/5
f 139/1/5 130/1/5 129/1/5
f 139/4/5 129/4/5 136/4/5
f 140/4/5 137/4/5 130/4/5
f 140/1/5 130/1/5 139/1/5
f 141/4/5 139/4/5 136/4/5
f 141/4/5 140/4/5 139/4/5
f 142/4/5 137/4/5 140/4/5
f 142/4/5 140/4/5 141/4/5
f 143/2/5 136/2/5 135/2/5
f 144/4/5 141/4/5 136/4/5
f 144/2/5 136/2/5 143/2/5
f 145/2/5 138/2/5 137/2/5
f 145/4/5 137/4/5 142/4/5
f 146/2/5 138/2/5 145/2/5
f 147/3/5 144/3/5 143/3/5
f 148/4/5 141/4/5 144/4/5
f 148/3/5 144/3/5 147/3/5
f 149/4/5 145/4/5 142/4/5
f 149/3/5 146/3/5 145/3/5
f 150/3/5 146/3/5 149/3/5
f 151/1/5 142/1/5 141/1/5
f 151/4/5 141/4/5 148/4/5
f 152/4/5 149/4/5 142/4/5
f 152/1/5 142/1/5 151/1/5
f 153/2/5 148/2/5 147/2/5
f 154/4/5 151/4/5 148/4/5
f 154/2/5 148/2/5 153/2/5
f 154/4/5 152/4/5 151/4/5
f 155/4/5 152/4/5 154/4/5
f 156/4/5 149/4/5 152/4/5
f 156/4/5 152/4/5 155/4/5
f 157/2/5 150/2/5 149/2/5
f 157/4/5 149/4/5 156/4/5
f 158/2/5 150/2/5 157/2/5
f 159/3/5 154/3/5 153/3/5
f 160/4/5 155/4/5 154/4/5
f 160/3/5 154/3/5 159/3/5
f 161/4/5 157/4/5 156/4/5
f 161/3/5 158/3/5 157/3/5
f 162/3/5 158/3/5 161/3/5
f 163/1/5 156/1/5 155/1/5
f 163/4/5 155/4/5 160/4/5
f 164/4/5 161/4/5 156/4/5
f 164/1/5 156/1/5 163/1/5
f 165/2/5 160/2/5 159/2/5
f 166/4/5 163/4/5 160/4/5
f 166/2/5 160/2/5 165/2/5
f 166/4/5 164/4/5 163/4/5
f 167/2/5 162/2/5 161/2/5
f 167/4/5 164/4/5 166/4/5
f 167/4/5 161/4/5 164/4/5
f 168/2/5 162/2/5 167/2/5
f 169/3/5 166/3/5 165/3/5
f 170/4/5 167/4/5 166/4/5
f 170/3/5 166/3/5 169/3/5
f 171/4/5 167/4/5 170/4/5
f 172/4/5 167/4/5 171/4/5
f 173/3/5 168/3/5 167/3/5
f 173/4/5 167/4/5 172/4/5
f 174/3/5 168/3/5 173/3/5
f 175/2/5 170/2/5 169/2/5
f 176/4/5 171/4/5 170/4/5
f 176/2/5 170/2/5 175/2/5
f 177/1/5 172/1/5 171/1/5
f 177/4/5 171/4/5 176/4/5
f 178/4/5 173/4/5 172/4/5
f 178/1/5 172/1/5 177/1/5
f 179/2/5 174/2/5 173/2/5
f 179/4/5 173/4/5 178/4/5
f 180/2/5 174/2/5 179/2/5
f 181/3/5 176/3/5 175/3/5
f 182/4/5 177/4/5 176/4/5
f 182/3/5 176/3/5 181/3/5
f 182/4/5 178/4/5 177/4/5
f 182/4/5 179/4/5 178/4/5
f 183/3/5 180/3/5 179/3/5
f 183/4/5 179/4/5 182/4/5
f 184/3/5 180/3/5 183/3/5
f 185/4/5 183/4/5 182/4/5
f 186/4/5 183/4/5 185/4/5
f 187/2/5 182/2/5 181/2/5
f 188/4/5 185/4/5 182/4/5
f 188/2/5 182/2/5 187/2/5
f 189/4/5 183/4/5 186/4/5
f 189/2/5 184/2/5 183/2/5
f 190/2/5 184/2/5 189/2/5
f 191/3/5 188/3/5 187/3/5
f 192/4/5 185/4/5 188/4/5
f 192/3/5 188/3/5 191/3/5
f 193/1/5 186/1/5 185/1/5
f 193/4/5 185/4/5 192/4/5
f 194/4/5 189/4/5 186/4/5
f 194/1/5 186/1/5 193/1/5
f 195/3/5 190/3/5 189/3/5
f 195/4/5 189/4/5 194/4/5
f 196/3/5 190/3/5 195/3/5
f 197/4/5 193/4/5 192/4/5
f 197/4/5 194/4/5 193/4/5
f 197/4/5 195/4/5 194/4/5
f 198/4/5 195/4/5 197/4/5
f 199/2/5 192/2/5 191/2/5
f 200/4/5 197/4/5 192/4/5
f 200/2/5 192/2/5 199/2/5
f 201/4/5 195/4/5 198/4/5
f 201/2/5 196/2/5 195/2/5
f 202/2/5 196/2/5 201/2/5
f 203/3/5 200/3/5 199/3/5
f 204/4/5 197/4/5 200/4/5
f 204/3/5 200/3/5 203/3/5
f 205/4/5 201/4/5 198/4/5
f 205/3/5 202/3/5 201/3/5
f 206/3/5 202/3/5 205/3/5
f 207/1/5 198/1/5 197/1/5
f 207/4/5 197/4/5 204/4/5
f 208/4/5 205/4/5 198/4/5
f 208/1/5 198/1/5 207/1/5
f 209/4/5 207/4/5 204/4/5
f 209/4/5 208/4/5 207/4/5
f 210/4/5 205/4/5 208/4/5
f 210/4/5 208/4/5 209/4/5
f 211/2/5 204/2/5 203/2/5
f 212/4/5 209/4/5 204/4/5
f 212/2/5 204/2/5 211/2/5
f 213/2/5 206/2/5 205/2/5
f 213/4/5 205/4/5 210/4/5
f 214/2/5 206/2/5 213/2/5
f 215/3/5 212/3/5 211/3/5
f 216/4/5 209/4/5 212/4/5
f 216/3/5 212/3/5 215/3/5
f 217/4/5 213/4/5 210/4/5
f 217/3/5 214/3/5 213/3/5
f 218/3/5 214/3/5 217/3/5
f 219/1/5 210/1/5 209/1/5
f 219/4/5 209/4/5 216/4/5
f 220/4/5 217/4/5 210/4/5
f 220/1/5 210/1/5 219/1/5
f 221/2/5 216/2/5 215/2/5
f 222/4/5 219/4/5 216/4/5
f 222/2/5 216/2/5 221/2/5
f 222/4/5 220/4/5 219/4/5
f 223/2/5 218/2/5 217/2/5
f 223/4/5 220/4/5 222/4/5
f 223/4/5 217/4/5 220/4/5
f 224/2/5 218/2/5 223/2/5
f 225/3/5 222/3/5 221/3/5
f 226/4/5 223/4/5 222/4/5
f 226/3/5 222/3/5 225/3/5
f 227/4/5 223/4/5 226/4/5
f 228/4/5 223/4/5 227/4/5
f 229/3/5 224/3/5 223/3/5
f 229/4/5 223/4/5 228/4/5
f 230/3/5 224/3/5 229/3/5
f 231/2/5 226/2/5 225/2/5
f 232/4/5 227/4/5 226/4/5
f 232/2/5 226/2/5 231/2/5
f 233/1/5 228/1/5 227/1/5
f 233/4/5 227/4/5 232/4/5
f 234/4/5 229/4/5 228/4/5
f 234/1/5 228/1/5 233/1/5
f 235/2/5 230/2/5 229/2/5
f 235/4/5 229/4/5 234/4/5
f 236/2/5 230/2/5 235/2/5
f 237/2/6 238/2/6 243/2/6
f 238/4/6 239/4/6 244/4/6
f 243/2/6 238/2/6 244/2/6
f 239/1/6 240/1/6 245/1/6
f 244/4/6 239/4/6 245/4/6
f 240/4/6 241/4/6 246/4/6
f 245/1/6 240/1/6 246/1/6
f 241/2/6 242/2/6 247/2/6
f 246/4/6 241/4/6 247/4/6
f 247/2/6 242/2/6 248/2/6
f 243/3/6 244/3/6 249/3/6
f 245/4/6 246/4/6 250/4/6
f 249/3/6 244/3/6 250/3/6
f 244/4/6 245/4/6 250/4/6
f 246/4/6 247/4/6 250/4/6
f 247/3/6 248/3/6 251/3/6
f 250/4/6 247/4/6 251/4/6
f 251/3/6 248/3/6 252/3/6
f 250/4/6 251/4/6 253/4/6
f 253/4/6 251/4/6 254/4/6
f 249/2/6 250/2/6 255/2/6
f 250/4/6 253/4/6 256/4/6
f 255/2/6 250/2/6 256/2/6
f 254/4/6 251/4/6 257/4/6
f 251/2/6 252/2/6 257/2/6
f 257/2/6 252/2/6 258/2/6
f 255/3/6 256/3/6 259/3/6
f 256/4/6 253/4/6 260/4/6
f 259/3/6 256/3/6 260/3/6
f 254/4/6 257/4/6 261/4/6
f 257/3/6 258/3/6 261/3/6
f 261/3/6 258/3/6 262/3/6
f 253/1/6 254/1/6 263/1/6
f 260/4/6 253/4/6 263/4/6
f 254/4/6 261/4/6 264/4/6
f 263/1/6 254/1/6 264/1/6
f 260/4/6 263/4/6 265/4/6
f 263/4/6 264/4/6 265/4/6
f 264/4/6 261/4/6 266/4/6
f 265/4/6 264/4/6 266/4/6
f 259/2/6 260/2/6 267/2/6
f 260/4/6 265/4/6 268/4/6
f 267/2/6 260/2/6 268/2/6
f 261/2/6 262/2/6 269/2/6
f 266/4/6 261/4/6 269/4/6
f 269/2/6 262/2/6 270/2/6
f 267/3/6 268/3/6 271/3/6
f 268/4/6 265/4/6 272/4/6
f 271/3/6 268/3/6 272/3/6
f 266/4/6 269/4/6 273/4/6
f 269/3/6 270/3/6 273/3/6
f 273/3/6 270/3/6 274/3/6
f 265/1/6 266/1/6 275/1/6
f 272/4/6 265/4/6 275/4/6
f 266/4/6 273/4/6 276/4/6
f 275/1/6 266/1/6 276/1/6
f 271/2/6 272/2/6 277/2/6
f 272/4/6 275/4/6 278/4/6
f 277/2/6 272/2/6 278/2/6
f 275/4/6 276/4/6 278/4/6
f 278/4/6 276/4/6 279/4/6
f 276/4/6 273/4/6 280/4/6
f 279/4/6 276/4/6 280/4/6
f 273/2/6 274/2/6 281/2/6
f 280/4/6 273/4/6 281/4/6
f 281/2/6 274/2/6 282/2/6
f 277/3/6 278/3/6 283/3/6
f 278/4/6 279/4/6 284/4/6
f 283/3/6 278/3/6 284/3/6
f 280/4/6 281/4/6 285/4/6
f 281/3/6 282/3/6 285/3/6
f 285/3/6 282/3/6 286/3/6
f 279/1/6 280/1/6 287/1/6
f 284/4/6 279/4/6 287/4/6
f 280/4/6 285/4/6 288/4/6
f 287/1/6 280/1/6 288/1/6
f 283/2/6 284/2/6 289/2/6
f 284/4/6 287/4/6 290/4/6
f 289/2/6 284/2/6 290/2/6
f 287/4/6 288/4/6 290/4/6
f 285/2/6 286/2/6 291/2/6
f 290/4/6 288/4/6 291/4/6
f 288/4/6 285/4/6 291/4/6
f 291/2/6 286/2/6 292/2/6
f 289/3/6 290/3/6 293/3/6
f 290/4/6 291/4/6 294/4/6
f 293/3/6 290/3/6 294/3/6
f 294/4/6 291/4/6 295/4/6
f 295/4/6 291/4/6 296/4/6
f 291/3/6 292/3/6 297/3/6
f 296/4/6 291/4/6 297/4/6
f 297/3/6 292/3/6 298/3/6
f 293/2/6 294/2/6 299/2/6
f 294/4/6 295/4/6 300/4/6
f 299/2/6 294/2/6 300/2/6
f 295/1/6 296/1/6 301/1/6
f 300/4/6 295/4/6 301/4/6
f 296/4/6 297/4/6 302/4/6
f 301/1/6 296/1/6 302/1/6
f 297/2/6 298/2/6 303/2/6
f 302/4/6 297/4/6 303/4/6
f 303/2/6 298/2/6 304/2/6
f 299/3/6 300/3/6 305/3/6
f 300/4/6 301/4/6 306/4/6
f 305/3/6 300/3/6 306/3/6
f 301/4/6 302/4/6 306/4/6
f 302/4/6 303/4/6 306/4/6
f 303/3/6 304/3/6 307/3/6
f 306/4/6 303/4/6 307/4/6
f 307/3/6 304/3/6 308/3/6
f 306/4/6 307/4/6 309/4/6
f 309/4/6 307/4/6 310/4/6
f 305/2/6 306/2/6 311/2/6
f 306/4/6 309/4/6 312/4/6
f 311/2/6 306/2/6 312/2/6
f 310/4/6 307/4/6 313/4/6
f 307/2/6 308/2/6 313/2/6
f 313/2/6 308/2/6 314/2/6
f 311/3/6 312/3/6 315/3/6
f 312/4/6 309/4/6 316/4/6
f 315/3/6 312/3/6 316/3/6
f 309/1/6 310/1/6 317/1/6
f 316/4/6 309/4/6 317/4/6
f 310/4/6 313/4/6 318/4/6
f 317/1/6 310/1/6 318/1/6
f 313/3/6 314/3/6 319/3/6
f 318/4/6 313/4/6 319/4/6
f 319/3/6 314/3/6 320/3/6
f 316/4/6 317/4/6 321/4/6
f 317/4/6 318/4/6 321/4/6
f 318/4/6 319/4/6 321/4/6
f 321/4/6 319/4/6 322/4/6
f 315/2/6 316/2/6 323/2/6
f 316/4/6 321/4/6 324/4/6
f 323/2/6 316/2/6 324/2/6
f 322/4/6 319/4/6 325/4/6
f 319/2/6 320/2/6 325/2/6
f 325/2/6 320/2/6 326/2/6
f 323/3/6 324/3/6 327/3/6
f 324/4/6 321/4/6 328/4/6
f 327/3/6 324/3/6 328/3/6
f 322/4/6 325/4/6 329/4/6
f 325/3/6 326/3/6 329/3/6
f 329/3/6 326/3/6 330/3/6
f 321/1/6 322/1/6 331/1/6
f 328/4/6 321/4/6 331/4/6
f 322/4/6 329/4/6 332/4/6
f 331/1/6 322/1/6 332/1/6
f 328/4/6 331/4/6 333/4/6
f 331/4/6 332/4/6 333/4/6
f 332/4/6 329/4/6 334/4/6
f 333/4/6 332/4/6 334/4/6
f 327/2/6 328/2/6 335/2/6
f 328/4/6 333/4/6 336/4/6
f 335/2/6 328/2/6 336/2/6
f 329/2/6 330/2/6 337/2/6
f 334/4/6 329/4/6 337/4/6
f 337/2/6 330/2/6 338/2/6
f 335/3/6 336/3/6 339/3/6
f 336/4/6 333/4/6 340/4/6
f 339/3/6 336/3/6 340/3/6
f 334/4/6 337/4/6 341/4/6
f 337/3/6 338/3/6 341/3/6
f 341/3/6 338/3/6 342/3/6
f 333/1/6 334/1/6 343/1/6
f 340/4/6 333/4/6 343/4/6
f 334/4/6 341/4/6 344/4/6
f 343/1/6 334/1/6 344/1/6
f 339/2/6 340/2/6 345/2/6
f 340/4/6 343/4/6 346/4/6
f 345/2/6 340/2/6 346/2/6
f 343/4/6 344/4/6 346/4/6
f 341/2/6 342/2/6 347/2/6
f 346/4/6 344/4/6 347/4/6
f 344/4/6 341/4/6 347/4/6
f 347/2/6 342/2/6 348/2/6
f 345/3/6 346/3/6 349/3/6
f 346/4/6 347/4/6 350/4/6
f 349/3/6 346/3/6 350/3/6
f 350/4/6 347/4/6 351/4/6
f 351/4/6 347/4/6 352/4/6
f 347/3/6 348/3/6 353/3/6
f 352/4/6 347/4/6 353/4/6
f 353/3/6 348/3/6 354/3/6
f 349/2/6 350/2/6 355/2/6
f 350/4/6 351/4/6 356/4/6
f 355/2/6 350/2/6 356/2/6
f 351/1/6 352/1/6 357/1/6
f 356/4/6 351/4/6 357/4/6
f 352/4/6 353/4/6 358/4/6
f 357/1/6 352/1/6 358/1/6
f 353/2/6 354/2/6 359/2/6
f 358/4/6 353/4/6 359/4/6
f 359/2/6 354/2/6 360/2/6
